<svg xmlns="http://www.w3.org/2000/svg" viewBox="0 0 64 64">
  <rect width="64" height="64" rx="14" fill="#050505"/>
  <g fill="none" stroke="#c9a875" stroke-width="1.4">
    <path d="M32 12 C 38 20, 38 28, 32 34 C 26 28, 26 20, 32 12 Z" fill="#1a1116"/>
    <path d="M32 34 C 40 30, 48 32, 51 40 C 44 42, 37 40, 32 34 Z" fill="#1a1116"/>
    <path d="M32 34 C 24 30, 16 32, 13 40 C 20 42, 27 40, 32 34 Z" fill="#1a1116"/>
    <path d="M32 34 C 34 42, 32 50, 26 54 C 22 47, 24 39, 32 34 Z" fill="#1a1116"/>
    <path d="M32 34 C 30 42, 32 50, 38 54 C 42 47, 40 39, 32 34 Z" fill="#1a1116"/>
  </g>
  <circle cx="32" cy="34" r="2.6" fill="#f0d9a8"/>
</svg>
