<svg xmlns="http://www.w3.org/2000/svg" viewBox="0 0 600 600">
  <defs>
    <radialGradient id="bgP" cx="30%" cy="25%" r="90%">
      <stop offset="0%" stop-color="#171017"/>
      <stop offset="55%" stop-color="#0a0708"/>
      <stop offset="100%" stop-color="#050505"/>
    </radialGradient>
    <linearGradient id="veinP" x1="0%" y1="0%" x2="100%" y2="100%">
      <stop offset="0%" stop-color="#f0d9a8"/>
      <stop offset="100%" stop-color="#8a6a3a"/>
    </linearGradient>
    <filter id="glowP" x="-50%" y="-50%" width="200%" height="200%">
      <feGaussianBlur stdDeviation="6" result="b"/>
      <feMerge><feMergeNode in="b"/><feMergeNode in="SourceGraphic"/></feMerge>
    </filter>
  </defs>
  <rect width="600" height="600" fill="url(#bgP)"/>
  <g filter="url(#glowP)" fill="none" stroke="url(#veinP)" stroke-width="1.6" opacity="0.9">
    <path d="M80 560 C 140 420, 220 280, 300 40"/>
    <path d="M110 560 C 170 430, 240 300, 300 90"/>
    <path d="M300 40 C 260 180, 220 340, 190 500"/>
    <path d="M300 40 C 340 180, 380 340, 410 500"/>
    <path d="M300 40 C 300 200, 300 380, 300 560"/>
    <path d="M300 90 C 350 220, 400 360, 470 520"/>
  </g>
  <ellipse cx="300" cy="300" rx="260" ry="330" fill="none" stroke="#3a2a1e" stroke-width="0.6" opacity="0.4"/>
</svg>
